<svg width="28" height="28" viewBox="0 0 28 28" fill="none" xmlns="http://www.w3.org/2000/svg">
<path d="M28 14.0005C28 21.0714 22.7586 26.917 15.9497 27.8656C15.313 27.9539 14.6617 28 14.0005 28C13.2373 28 12.4878 27.9392 11.758 27.8215C5.09127 26.7483 0 20.9684 0 14.0005C0 6.26844 6.26844 0 13.9995 0C21.7306 0 28 6.26844 28 14.0005Z" fill="#1877F2"/>
<path d="M15.9496 11.241V14.2909H19.7224L19.125 18.3992H15.9496V27.8647C15.3129 27.953 14.6615 27.9991 14.0004 27.9991C13.2372 27.9991 12.4877 27.9382 11.7578 27.8205V18.3992H8.27832V14.2909H11.7578V10.5593C11.7578 8.24417 13.6345 6.36658 15.9505 6.36658V6.36854C15.9574 6.36854 15.9633 6.36658 15.9702 6.36658H19.7234V9.91967H17.2709C16.5421 9.91967 15.9505 10.5112 15.9505 11.2401L15.9496 11.241Z" fill="white"/>
</svg>
