<svg width="28" height="28" viewBox="0 0 28 28" fill="none" xmlns="http://www.w3.org/2000/svg">
<path d="M14.0319 0H13.9681C6.25374 0 0 6.25558 0 13.9722V14.036C0 21.7527 6.25374 28.0082 13.9681 28.0082H14.0319C21.7463 28.0082 28 21.7527 28 14.036V13.9722C28 6.25558 21.7463 0 14.0319 0Z" fill="url(#paint0_linear_1010_2273)"/>
<path d="M18.3314 5.698H9.66742C7.27384 5.698 5.3266 7.64581 5.3266 10.0401V17.9687C5.3266 20.363 7.27384 22.3108 9.66742 22.3108H18.3314C20.725 22.3108 22.6722 20.363 22.6722 17.9687V10.0401C22.6722 7.64581 20.725 5.698 18.3314 5.698ZM6.8579 10.0401C6.8579 8.49068 8.11846 7.22975 9.66742 7.22975H18.3314C19.8804 7.22975 21.1409 8.49068 21.1409 10.0401V17.9687C21.1409 19.5181 19.8804 20.7791 18.3314 20.7791H9.66742C8.11846 20.7791 6.8579 19.5181 6.8579 17.9687V10.0401Z" fill="white"/>
<path d="M13.9991 18.0424C16.2249 18.0424 18.0368 16.231 18.0368 14.0035C18.0368 11.776 16.2259 9.9646 13.9991 9.9646C11.7722 9.9646 9.96136 11.776 9.96136 14.0035C9.96136 16.231 11.7722 18.0424 13.9991 18.0424ZM13.9991 11.4973C15.3813 11.4973 16.5055 12.6219 16.5055 14.0045C16.5055 15.3871 15.3813 16.5116 13.9991 16.5116C12.6169 16.5116 11.4927 15.3871 11.4927 14.0045C11.4927 12.6219 12.6169 11.4973 13.9991 11.4973Z" fill="white"/>
<path d="M18.4102 10.6171C19.0096 10.6171 19.4981 10.1294 19.4981 9.5289C19.4981 8.92836 19.0106 8.44067 18.4102 8.44067C17.8099 8.44067 17.3223 8.92836 17.3223 9.5289C17.3223 10.1294 17.8099 10.6171 18.4102 10.6171Z" fill="white"/>
<defs>
<linearGradient id="paint0_linear_1010_2273" x1="4.09067" y1="23.9164" x2="23.9152" y2="4.0987" gradientUnits="userSpaceOnUse">
<stop stop-color="#FAAD4F"/>
<stop offset="0.35" stop-color="#DD2A7B"/>
<stop offset="0.62" stop-color="#9537B0"/>
<stop offset="1" stop-color="#515BD4"/>
</linearGradient>
</defs>
</svg>
