<svg width="18" height="18" viewBox="0 0 18 18" fill="none" xmlns="http://www.w3.org/2000/svg">
<path d="M17 9C16.7333 9 16.4958 8.90417 16.2875 8.7125C16.0792 8.52083 15.9583 8.28333 15.925 8C15.7083 6.45 15.0542 5.12917 13.9625 4.0375C12.8708 2.94583 11.55 2.29167 10 2.075C9.71667 2.04167 9.47917 1.925 9.2875 1.725C9.09583 1.525 9 1.28333 9 1C9 0.716667 9.1 0.479167 9.3 0.2875C9.5 0.0958333 9.73333 0.0166667 10 0.05C12.1 0.283333 13.8917 1.14167 15.375 2.625C16.8583 4.10833 17.7167 5.9 17.95 8C17.9833 8.26667 17.9042 8.5 17.7125 8.7C17.5208 8.9 17.2833 9 17 9ZM12.825 9C12.6083 9 12.4167 8.925 12.25 8.775C12.0833 8.625 11.9583 8.425 11.875 8.175C11.7417 7.69167 11.4875 7.2625 11.1125 6.8875C10.7375 6.5125 10.3083 6.25833 9.825 6.125C9.575 6.04167 9.375 5.91667 9.225 5.75C9.075 5.58333 9 5.38333 9 5.15C9 4.81667 9.11667 4.54583 9.35 4.3375C9.58333 4.12917 9.84167 4.05833 10.125 4.125C11.0583 4.34167 11.8625 4.7875 12.5375 5.4625C13.2125 6.1375 13.6583 6.94167 13.875 7.875C13.9417 8.15833 13.8667 8.41667 13.65 8.65C13.4333 8.88333 13.1583 9 12.825 9ZM16.95 18C14.8667 18 12.8083 17.5458 10.775 16.6375C8.74167 15.7292 6.89167 14.4417 5.225 12.775C3.55833 11.1083 2.27083 9.25833 1.3625 7.225C0.454167 5.19167 0 3.13333 0 1.05C0 0.75 0.1 0.5 0.3 0.3C0.5 0.1 0.75 0 1.05 0H5.1C5.33333 0 5.54167 0.0791667 5.725 0.2375C5.90833 0.395833 6.01667 0.583333 6.05 0.8L6.7 4.3C6.73333 4.56667 6.725 4.79167 6.675 4.975C6.625 5.15833 6.53333 5.31667 6.4 5.45L3.975 7.9C4.30833 8.51667 4.70417 9.1125 5.1625 9.6875C5.62083 10.2625 6.125 10.8167 6.675 11.35C7.19167 11.8667 7.73333 12.3458 8.3 12.7875C8.86667 13.2292 9.46667 13.6333 10.1 14L12.45 11.65C12.6 11.5 12.7958 11.3875 13.0375 11.3125C13.2792 11.2375 13.5167 11.2167 13.75 11.25L17.2 11.95C17.4333 12.0167 17.625 12.1375 17.775 12.3125C17.925 12.4875 18 12.6833 18 12.9V16.95C18 17.25 17.9 17.5 17.7 17.7C17.5 17.9 17.25 18 16.95 18ZM3.025 6L4.675 4.35L4.25 2H2.025C2.10833 2.68333 2.225 3.35833 2.375 4.025C2.525 4.69167 2.74167 5.35 3.025 6ZM11.975 14.95C12.625 15.2333 13.2875 15.4583 13.9625 15.625C14.6375 15.7917 15.3167 15.9 16 15.95V13.75L13.65 13.275L11.975 14.95Z" fill="#4BC500"/>
</svg>
