<svg width="15" height="15" viewBox="0 0 15 15" fill="none" xmlns="http://www.w3.org/2000/svg">
<g id="data_alert">
<mask id="mask0_1103_2786" style="mask-type:alpha" maskUnits="userSpaceOnUse" x="0" y="0" width="15" height="15">
<rect id="Bounding box" width="15" height="15" fill="#D9D9D9"/>
</mask>
<g mask="url(#mask0_1103_2786)">
<path id="data_alert_2" d="M10 5.625C10.0833 5.625 10.1562 5.59375 10.2188 5.53125C10.2812 5.46875 10.3125 5.39583 10.3125 5.3125V3.4375C10.3125 3.35417 10.2812 3.28125 10.2188 3.21875C10.1562 3.15625 10.0833 3.125 10 3.125C9.91667 3.125 9.84375 3.15625 9.78125 3.21875C9.71875 3.28125 9.6875 3.35417 9.6875 3.4375V5.3125C9.6875 5.39583 9.71875 5.46875 9.78125 5.53125C9.84375 5.59375 9.91667 5.625 10 5.625ZM10 6.875C10.0833 6.875 10.1562 6.84375 10.2188 6.78125C10.2812 6.71875 10.3125 6.64583 10.3125 6.5625C10.3125 6.47917 10.2812 6.40625 10.2188 6.34375C10.1562 6.28125 10.0833 6.25 10 6.25C9.91667 6.25 9.84375 6.28125 9.78125 6.34375C9.71875 6.40625 9.6875 6.47917 9.6875 6.5625C9.6875 6.64583 9.71875 6.71875 9.78125 6.78125C9.84375 6.84375 9.91667 6.875 10 6.875ZM2.5 12.5C2.32292 12.5 2.17448 12.4401 2.05469 12.3203C1.9349 12.2005 1.875 12.0521 1.875 11.875C1.875 11.6979 1.9349 11.5495 2.05469 11.4297C2.17448 11.3099 2.32292 11.25 2.5 11.25H8.75C8.92708 11.25 9.07552 11.3099 9.19531 11.4297C9.3151 11.5495 9.375 11.6979 9.375 11.875C9.375 12.0521 9.3151 12.2005 9.19531 12.3203C9.07552 12.4401 8.92708 12.5 8.75 12.5H2.5ZM10 8.125C9.13542 8.125 8.39844 7.82031 7.78906 7.21094C7.17969 6.60156 6.875 5.86458 6.875 5C6.875 4.13542 7.17969 3.39844 7.78906 2.78906C8.39844 2.17969 9.13542 1.875 10 1.875C10.8646 1.875 11.6016 2.17969 12.2109 2.78906C12.8203 3.39844 13.125 4.13542 13.125 5C13.125 5.86458 12.8203 6.60156 12.2109 7.21094C11.6016 7.82031 10.8646 8.125 10 8.125ZM2.5 7.5C2.32292 7.5 2.17448 7.4401 2.05469 7.32031C1.9349 7.20052 1.875 7.05208 1.875 6.875C1.875 6.69792 1.9349 6.54948 2.05469 6.42969C2.17448 6.3099 2.32292 6.25 2.5 6.25H5.42188C5.59896 6.25 5.7474 6.3099 5.86719 6.42969C5.98698 6.54948 6.04688 6.69792 6.04688 6.875C6.04688 7.04167 5.98698 7.1875 5.86719 7.3125C5.7474 7.4375 5.59896 7.5 5.42188 7.5H2.5ZM2.5 10C2.32292 10 2.17448 9.9401 2.05469 9.82031C1.9349 9.70052 1.875 9.55208 1.875 9.375C1.875 9.19792 1.9349 9.04948 2.05469 8.92969C2.17448 8.8099 2.32292 8.75 2.5 8.75H7.45312C7.63021 8.75 7.77865 8.8099 7.89844 8.92969C8.01823 9.04948 8.07812 9.19792 8.07812 9.375C8.07812 9.54167 8.02083 9.6875 7.90625 9.8125C7.79167 9.9375 7.64062 10 7.45312 10H2.5Z" fill="#4BC500"/>
</g>
</g>
</svg>
