<svg width="15" height="15" viewBox="0 0 15 15" fill="none" xmlns="http://www.w3.org/2000/svg">
<g id="logout">
<mask id="mask0_1103_2798" style="mask-type:alpha" maskUnits="userSpaceOnUse" x="0" y="0" width="15" height="15">
<rect id="Bounding box" width="15" height="15" fill="#D9D9D9"/>
</mask>
<g mask="url(#mask0_1103_2798)">
<path id="logout_2" d="M3.125 13.125C2.78125 13.125 2.48698 13.0026 2.24219 12.7578C1.9974 12.513 1.875 12.2188 1.875 11.875V3.125C1.875 2.78125 1.9974 2.48698 2.24219 2.24219C2.48698 1.9974 2.78125 1.875 3.125 1.875H6.875C7.05208 1.875 7.20052 1.9349 7.32031 2.05469C7.4401 2.17448 7.5 2.32292 7.5 2.5C7.5 2.67708 7.4401 2.82552 7.32031 2.94531C7.20052 3.0651 7.05208 3.125 6.875 3.125H3.125V11.875H6.875C7.05208 11.875 7.20052 11.9349 7.32031 12.0547C7.4401 12.1745 7.5 12.3229 7.5 12.5C7.5 12.6771 7.4401 12.8255 7.32031 12.9453C7.20052 13.0651 7.05208 13.125 6.875 13.125H3.125ZM10.7344 8.125H6.25C6.07292 8.125 5.92448 8.0651 5.80469 7.94531C5.6849 7.82552 5.625 7.67708 5.625 7.5C5.625 7.32292 5.6849 7.17448 5.80469 7.05469C5.92448 6.9349 6.07292 6.875 6.25 6.875H10.7344L9.5625 5.70312C9.44792 5.58854 9.39063 5.44792 9.39063 5.28125C9.39063 5.11458 9.44792 4.96875 9.5625 4.84375C9.67708 4.71875 9.82292 4.65365 10 4.64844C10.1771 4.64323 10.3281 4.70312 10.4531 4.82812L12.6875 7.0625C12.8125 7.1875 12.875 7.33333 12.875 7.5C12.875 7.66667 12.8125 7.8125 12.6875 7.9375L10.4531 10.1719C10.3281 10.2969 10.1797 10.3568 10.0078 10.3516C9.83594 10.3464 9.6875 10.2812 9.5625 10.1562C9.44792 10.0312 9.39323 9.88281 9.39844 9.71094C9.40365 9.53906 9.46354 9.39583 9.57812 9.28125L10.7344 8.125Z" fill="#FF5252"/>
</g>
</g>
</svg>
