<svg width="15" height="15" viewBox="0 0 15 15" fill="none" xmlns="http://www.w3.org/2000/svg">
<g id="order_approve">
<mask id="mask0_1103_2765" style="mask-type:alpha" maskUnits="userSpaceOnUse" x="0" y="0" width="15" height="15">
<rect id="Bounding box" width="15" height="15" fill="#D9D9D9"/>
</mask>
<g mask="url(#mask0_1103_2765)">
<path id="order_approve_2" d="M10.7969 11.3281L10.5312 11.0625C10.4375 10.9688 10.3255 10.9219 10.1953 10.9219C10.0651 10.9219 9.95312 10.9688 9.85938 11.0625C9.76563 11.1562 9.71875 11.2656 9.71875 11.3906C9.71875 11.5156 9.76563 11.625 9.85938 11.7188L10.4688 12.3281C10.5625 12.4219 10.6719 12.4688 10.7969 12.4688C10.9219 12.4688 11.0312 12.4219 11.125 12.3281L12.6406 10.8438C12.7344 10.75 12.7812 10.638 12.7812 10.5078C12.7812 10.3776 12.7344 10.2656 12.6406 10.1719C12.5469 10.0781 12.4349 10.0312 12.3047 10.0312C12.1745 10.0312 12.0625 10.0781 11.9688 10.1719L10.7969 11.3281ZM4.375 5.625H10.625C10.8021 5.625 10.9505 5.5651 11.0703 5.44531C11.1901 5.32552 11.25 5.17708 11.25 5C11.25 4.82292 11.1901 4.67448 11.0703 4.55469C10.9505 4.4349 10.8021 4.375 10.625 4.375H4.375C4.19792 4.375 4.04948 4.4349 3.92969 4.55469C3.8099 4.67448 3.75 4.82292 3.75 5C3.75 5.17708 3.8099 5.32552 3.92969 5.44531C4.04948 5.5651 4.19792 5.625 4.375 5.625ZM11.25 14.375C10.3854 14.375 9.64844 14.0703 9.03906 13.4609C8.42969 12.8516 8.125 12.1146 8.125 11.25C8.125 10.3854 8.42969 9.64844 9.03906 9.03906C9.64844 8.42969 10.3854 8.125 11.25 8.125C12.1146 8.125 12.8516 8.42969 13.4609 9.03906C14.0703 9.64844 14.375 10.3854 14.375 11.25C14.375 12.1146 14.0703 12.8516 13.4609 13.4609C12.8516 14.0703 12.1146 14.375 11.25 14.375ZM1.875 3.125C1.875 2.78125 1.9974 2.48698 2.24219 2.24219C2.48698 1.9974 2.78125 1.875 3.125 1.875H11.875C12.2188 1.875 12.513 1.9974 12.7578 2.24219C13.0026 2.48698 13.125 2.78125 13.125 3.125V6.48438C13.125 6.66146 13.0651 6.8099 12.9453 6.92969C12.8255 7.04948 12.6771 7.10938 12.5 7.10938C12.3229 7.10938 12.1745 7.04948 12.0547 6.92969C11.9349 6.8099 11.875 6.66146 11.875 6.48438V3.125H3.125V11.9063H6.92188C6.94271 12.0625 6.97396 12.2188 7.01562 12.375C7.05729 12.5313 7.10417 12.6823 7.15625 12.8281C7.20833 12.9427 7.1875 13.0339 7.09375 13.1016C7 13.1693 6.91146 13.1615 6.82812 13.0781L6.78125 13.0312C6.71875 12.9688 6.64583 12.9375 6.5625 12.9375C6.47917 12.9375 6.40625 12.9688 6.34375 13.0312L5.84375 13.5312C5.78125 13.5938 5.70833 13.625 5.625 13.625C5.54167 13.625 5.46875 13.5938 5.40625 13.5312L4.90625 13.0312C4.84375 12.9688 4.77083 12.9375 4.6875 12.9375C4.60417 12.9375 4.53125 12.9688 4.46875 13.0312L3.96875 13.5312C3.90625 13.5938 3.83333 13.625 3.75 13.625C3.66667 13.625 3.59375 13.5938 3.53125 13.5312L3.03125 13.0312C2.96875 12.9688 2.89583 12.9375 2.8125 12.9375C2.72917 12.9375 2.65625 12.9688 2.59375 13.0312L1.875 13.75V3.125ZM4.375 10.625H6.48438C6.66146 10.625 6.8099 10.5651 6.92969 10.4453C7.04948 10.3255 7.10938 10.1771 7.10938 10C7.10938 9.82292 7.04948 9.67448 6.92969 9.55469C6.8099 9.4349 6.66146 9.375 6.48438 9.375H4.375C4.19792 9.375 4.04948 9.4349 3.92969 9.55469C3.8099 9.67448 3.75 9.82292 3.75 10C3.75 10.1771 3.8099 10.3255 3.92969 10.4453C4.04948 10.5651 4.19792 10.625 4.375 10.625ZM4.375 8.125H8.46875C8.64583 8.125 8.79427 8.0651 8.91406 7.94531C9.03385 7.82552 9.09375 7.67708 9.09375 7.5C9.09375 7.32292 9.03385 7.17448 8.91406 7.05469C8.79427 6.9349 8.64583 6.875 8.46875 6.875H4.375C4.19792 6.875 4.04948 6.9349 3.92969 7.05469C3.8099 7.17448 3.75 7.32292 3.75 7.5C3.75 7.67708 3.8099 7.82552 3.92969 7.94531C4.04948 8.0651 4.19792 8.125 4.375 8.125Z" fill="#4BC500"/>
</g>
</g>
</svg>
