<svg width="180" height="36" viewBox="0 0 203 36" fill="none" xmlns="http://www.w3.org/2000/svg">
<path d="M0.0340909 35V0.0909081H13.8068C16.4432 0.0909081 18.6932 0.562499 20.5568 1.50568C22.4318 2.4375 23.858 3.76136 24.8352 5.47727C25.8239 7.18182 26.3182 9.1875 26.3182 11.4943C26.3182 13.8125 25.8182 15.8068 24.8182 17.4773C23.8182 19.1364 22.3693 20.4091 20.4716 21.2955C18.5852 22.1818 16.3011 22.625 13.6193 22.625H4.39773V16.6932H12.4261C13.8352 16.6932 15.0057 16.5 15.9375 16.1136C16.8693 15.7273 17.5625 15.1477 18.017 14.375C18.483 13.6023 18.7159 12.642 18.7159 11.4943C18.7159 10.3352 18.483 9.35795 18.017 8.5625C17.5625 7.76704 16.8636 7.16477 15.9205 6.75568C14.9886 6.33523 13.8125 6.125 12.392 6.125H7.41477V35H0.0340909ZM18.8864 19.1136L27.5625 35H19.4148L10.9261 19.1136H18.8864ZM42.4277 35.5114C39.7345 35.5114 37.4163 34.9659 35.4731 33.875C33.5413 32.7727 32.0527 31.2159 31.0072 29.2045C29.9618 27.1818 29.439 24.7898 29.439 22.0284C29.439 19.3352 29.9618 16.9716 31.0072 14.9375C32.0527 12.9034 33.5243 11.3182 35.422 10.1818C37.3311 9.04545 39.5697 8.47727 42.1379 8.47727C43.8652 8.47727 45.4731 8.75568 46.9618 9.3125C48.4618 9.85795 49.7686 10.6818 50.8822 11.7841C52.0072 12.8864 52.8822 14.2727 53.5072 15.9432C54.1322 17.6023 54.4447 19.5455 54.4447 21.7727V23.767H32.3368V19.267H47.6095C47.6095 18.2216 47.3822 17.2955 46.9277 16.4886C46.4731 15.6818 45.8424 15.0511 45.0356 14.5966C44.2402 14.1307 43.314 13.8977 42.2572 13.8977C41.1549 13.8977 40.1777 14.1534 39.3254 14.6648C38.4845 15.1648 37.8254 15.8409 37.3481 16.6932C36.8709 17.5341 36.6265 18.4716 36.6152 19.5057V23.7841C36.6152 25.0795 36.8538 26.1989 37.3311 27.142C37.8197 28.0852 38.5072 28.8125 39.3936 29.3239C40.2799 29.8352 41.3311 30.0909 42.547 30.0909C43.3538 30.0909 44.0924 29.9773 44.7629 29.75C45.4334 29.5227 46.0072 29.1818 46.4845 28.7273C46.9618 28.2727 47.3254 27.7159 47.5754 27.0568L54.2913 27.5C53.9504 29.1136 53.2515 30.5227 52.1947 31.7273C51.1493 32.9205 49.797 33.8523 48.1379 34.5227C46.4902 35.1818 44.5868 35.5114 42.4277 35.5114ZM80.4874 16.2841L73.8397 16.6932C73.7261 16.125 73.4818 15.6136 73.1068 15.1591C72.7318 14.6932 72.2374 14.3239 71.6238 14.0511C71.0215 13.767 70.2999 13.625 69.459 13.625C68.334 13.625 67.3852 13.8636 66.6124 14.3409C65.8397 14.8068 65.4534 15.4318 65.4534 16.2159C65.4534 16.8409 65.7034 17.3693 66.2034 17.8011C66.7034 18.233 67.5613 18.5795 68.7772 18.8409L73.5159 19.7955C76.0613 20.3182 77.959 21.1591 79.209 22.3182C80.459 23.4773 81.084 25 81.084 26.8864C81.084 28.6023 80.5784 30.108 79.567 31.4034C78.567 32.6989 77.192 33.7102 75.442 34.4375C73.7034 35.1534 71.6977 35.5114 69.4249 35.5114C65.959 35.5114 63.1977 34.7898 61.1409 33.3466C59.0954 31.892 57.8965 29.9148 57.5443 27.4148L64.6863 27.0398C64.9022 28.0966 65.4249 28.9034 66.2545 29.4602C67.084 30.0057 68.1465 30.2784 69.442 30.2784C70.7147 30.2784 71.7374 30.0341 72.5102 29.5455C73.2943 29.0455 73.692 28.4034 73.7034 27.6193C73.692 26.9602 73.4136 26.4205 72.8681 26C72.3227 25.5682 71.4818 25.2386 70.3454 25.0114L65.8113 24.108C63.2545 23.5966 61.3511 22.7102 60.1011 21.4489C58.8624 20.1875 58.2431 18.5795 58.2431 16.625C58.2431 14.9432 58.6977 13.4943 59.6068 12.2784C60.5272 11.0625 61.817 10.125 63.4761 9.46591C65.1465 8.80682 67.1011 8.47727 69.3397 8.47727C72.6465 8.47727 75.2488 9.17614 77.1465 10.5739C79.0556 11.9716 80.1693 13.875 80.4874 16.2841ZM99.1026 8.81818V14.2727H83.3356V8.81818H99.1026ZM86.9151 2.54545H94.1765V26.9545C94.1765 27.625 94.2787 28.1477 94.4833 28.5227C94.6878 28.8864 94.9719 29.142 95.3356 29.2898C95.7106 29.4375 96.1424 29.5114 96.631 29.5114C96.9719 29.5114 97.3128 29.483 97.6537 29.4261C97.9947 29.358 98.256 29.3068 98.4378 29.2727L99.5799 34.6761C99.2162 34.7898 98.7049 34.9205 98.0458 35.0682C97.3867 35.2273 96.5856 35.3239 95.6424 35.358C93.8924 35.4261 92.3583 35.1932 91.0401 34.6591C89.7333 34.125 88.7162 33.2955 87.989 32.1705C87.2617 31.0455 86.9037 29.625 86.9151 27.9091V2.54545ZM114.901 35.5114C112.253 35.5114 109.964 34.9489 108.032 33.8239C106.111 32.6875 104.628 31.108 103.583 29.0852C102.537 27.0511 102.015 24.6932 102.015 22.0114C102.015 19.3068 102.537 16.9432 103.583 14.9205C104.628 12.8864 106.111 11.3068 108.032 10.1818C109.964 9.04545 112.253 8.47727 114.901 8.47727C117.549 8.47727 119.833 9.04545 121.753 10.1818C123.685 11.3068 125.174 12.8864 126.219 14.9205C127.265 16.9432 127.787 19.3068 127.787 22.0114C127.787 24.6932 127.265 27.0511 126.219 29.0852C125.174 31.108 123.685 32.6875 121.753 33.8239C119.833 34.9489 117.549 35.5114 114.901 35.5114ZM114.935 29.8864C116.14 29.8864 117.145 29.5455 117.952 28.8636C118.759 28.1705 119.367 27.2273 119.776 26.0341C120.196 24.8409 120.407 23.483 120.407 21.9602C120.407 20.4375 120.196 19.0795 119.776 17.8864C119.367 16.6932 118.759 15.75 117.952 15.0568C117.145 14.3636 116.14 14.017 114.935 14.017C113.719 14.017 112.696 14.3636 111.867 15.0568C111.049 15.75 110.429 16.6932 110.009 17.8864C109.6 19.0795 109.395 20.4375 109.395 21.9602C109.395 23.483 109.6 24.8409 110.009 26.0341C110.429 27.2273 111.049 28.1705 111.867 28.8636C112.696 29.5455 113.719 29.8864 114.935 29.8864ZM143.859 35.5114C141.211 35.5114 138.921 34.9489 136.989 33.8239C135.069 32.6875 133.586 31.108 132.54 29.0852C131.495 27.0511 130.972 24.6932 130.972 22.0114C130.972 19.3068 131.495 16.9432 132.54 14.9205C133.586 12.8864 135.069 11.3068 136.989 10.1818C138.921 9.04545 141.211 8.47727 143.859 8.47727C146.506 8.47727 148.79 9.04545 150.711 10.1818C152.643 11.3068 154.131 12.8864 155.177 14.9205C156.222 16.9432 156.745 19.3068 156.745 22.0114C156.745 24.6932 156.222 27.0511 155.177 29.0852C154.131 31.108 152.643 32.6875 150.711 33.8239C148.79 34.9489 146.506 35.5114 143.859 35.5114ZM143.893 29.8864C145.097 29.8864 146.103 29.5455 146.91 28.8636C147.716 28.1705 148.324 27.2273 148.734 26.0341C149.154 24.8409 149.364 23.483 149.364 21.9602C149.364 20.4375 149.154 19.0795 148.734 17.8864C148.324 16.6932 147.716 15.75 146.91 15.0568C146.103 14.3636 145.097 14.017 143.893 14.017C142.677 14.017 141.654 14.3636 140.824 15.0568C140.006 15.75 139.387 16.6932 138.966 17.8864C138.557 19.0795 138.353 20.4375 138.353 21.9602C138.353 23.483 138.557 24.8409 138.966 26.0341C139.387 27.2273 140.006 28.1705 140.824 28.8636C141.654 29.5455 142.677 29.8864 143.893 29.8864Z" fill="black"/>
<path d="M165.499 35H157.59L169.641 0.0909081H179.153L191.187 35H183.278L174.533 8.06818H174.261L165.499 35ZM165.005 21.2784H183.687V27.0398H165.005V21.2784ZM202.289 0.0909081V35H194.908V0.0909081H202.289Z" fill="#4BC500"/>
</svg>
